<svg xmlns="http://www.w3.org/2000/svg" xmlns:xlink="http://www.w3.org/1999/xlink" width="1080" zoomAndPan="magnify" viewBox="0 0 810 809.999993" height="1080" preserveAspectRatio="xMidYMid meet" version="1.0"><defs><g/></defs><rect x="-81" width="972" fill="#ffffff" y="-80.999999" height="971.999992" fill-opacity="1"/><rect x="-81" width="972" fill="#021e45" y="-80.999999" height="971.999992" fill-opacity="1"/><g fill="#ffffff" fill-opacity="1"><g transform="translate(203.953118, 447.216298)"><g><path d="M 8.515625 0 L 8.515625 -87.734375 L 38.46875 -87.734375 C 48.75 -87.734375 57.207031 -85.914062 63.84375 -82.28125 C 70.488281 -78.644531 75.421875 -73.546875 78.640625 -66.984375 C 81.859375 -60.429688 83.46875 -52.722656 83.46875 -43.859375 C 83.46875 -35.003906 81.859375 -27.296875 78.640625 -20.734375 C 75.421875 -14.179688 70.488281 -9.085938 63.84375 -5.453125 C 57.207031 -1.816406 48.75 0 38.46875 0 Z M 24.5625 -13.78125 L 37.71875 -13.78125 C 45.070312 -13.78125 50.878906 -14.972656 55.140625 -17.359375 C 59.398438 -19.742188 62.445312 -23.171875 64.28125 -27.640625 C 66.125 -32.109375 67.046875 -37.515625 67.046875 -43.859375 C 67.046875 -50.128906 66.125 -55.519531 64.28125 -60.03125 C 62.445312 -64.539062 59.398438 -68.003906 55.140625 -70.421875 C 50.878906 -72.847656 45.070312 -74.0625 37.71875 -74.0625 L 24.5625 -74.0625 Z M 24.5625 -13.78125 "/></g></g></g><g fill="#ffffff" fill-opacity="1"><g transform="translate(293.064251, 447.216298)"><g><path d="M 16.796875 -71.8125 C 13.867188 -71.8125 11.460938 -72.6875 9.578125 -74.4375 C 7.703125 -76.195312 6.765625 -78.414062 6.765625 -81.09375 C 6.765625 -83.757812 7.703125 -85.945312 9.578125 -87.65625 C 11.460938 -89.375 13.867188 -90.234375 16.796875 -90.234375 C 19.722656 -90.234375 22.125 -89.375 24 -87.65625 C 25.875 -85.945312 26.8125 -83.757812 26.8125 -81.09375 C 26.8125 -78.414062 25.875 -76.195312 24 -74.4375 C 22.125 -72.6875 19.722656 -71.8125 16.796875 -71.8125 Z M 8.765625 0 L 8.765625 -62.15625 L 24.8125 -62.15625 L 24.8125 0 Z M 8.765625 0 "/></g></g></g><g fill="#ffffff" fill-opacity="1"><g transform="translate(326.52793, 447.216298)"><g><path d="M 2.25 0 L 24.8125 -31.078125 L 2.25 -62.15625 L 19.421875 -62.15625 L 35.21875 -40.109375 L 50.890625 -62.15625 L 68.171875 -62.15625 L 45.5 -31.078125 L 68.171875 0 L 50.890625 0 L 35.21875 -22.0625 L 19.421875 0 Z M 2.25 0 "/></g></g></g><g fill="#ffffff" fill-opacity="1"><g transform="translate(396.839247, 447.216298)"><g><path d="M 8.515625 0 L 8.515625 -87.734375 L 24.5625 -87.734375 L 24.5625 0 Z M 8.515625 0 "/></g></g></g><g fill="#ffffff" fill-opacity="1"><g transform="translate(429.92693, 447.216298)"><g><path d="M 8.140625 0 L 8.140625 -62.15625 L 22.3125 -62.15625 L 23.5625 -51.640625 C 25.476562 -55.316406 28.253906 -58.238281 31.890625 -60.40625 C 35.523438 -62.582031 39.804688 -63.671875 44.734375 -63.671875 C 52.421875 -63.671875 58.394531 -61.242188 62.65625 -56.390625 C 66.925781 -51.546875 69.0625 -44.445312 69.0625 -35.09375 L 69.0625 0 L 53.015625 0 L 53.015625 -33.59375 C 53.015625 -38.9375 51.925781 -43.023438 49.75 -45.859375 C 47.582031 -48.703125 44.203125 -50.125 39.609375 -50.125 C 35.097656 -50.125 31.398438 -48.535156 28.515625 -45.359375 C 25.628906 -42.191406 24.1875 -37.765625 24.1875 -32.078125 L 24.1875 0 Z M 8.140625 0 "/></g></g></g><g fill="#ffffff" fill-opacity="1"><g transform="translate(506.128854, 447.216298)"><g><path d="M 8.140625 0 L 8.140625 -62.15625 L 22.3125 -62.15625 L 23.5625 -51.640625 C 25.476562 -55.316406 28.253906 -58.238281 31.890625 -60.40625 C 35.523438 -62.582031 39.804688 -63.671875 44.734375 -63.671875 C 52.421875 -63.671875 58.394531 -61.242188 62.65625 -56.390625 C 66.925781 -51.546875 69.0625 -44.445312 69.0625 -35.09375 L 69.0625 0 L 53.015625 0 L 53.015625 -33.59375 C 53.015625 -38.9375 51.925781 -43.023438 49.75 -45.859375 C 47.582031 -48.703125 44.203125 -50.125 39.609375 -50.125 C 35.097656 -50.125 31.398438 -48.535156 28.515625 -45.359375 C 25.628906 -42.191406 24.1875 -37.765625 24.1875 -32.078125 L 24.1875 0 Z M 8.140625 0 "/></g></g></g><g fill="#ee4b27" fill-opacity="1"><g transform="translate(582.339822, 447.216298)"><g><path d="M 6.390625 -68.421875 L 4.890625 -94.625 L 18.921875 -94.625 L 17.296875 -68.421875 Z M 6.390625 -68.421875 "/></g></g></g></svg>