<svg xmlns="http://www.w3.org/2000/svg" xmlns:xlink="http://www.w3.org/1999/xlink" width="1920" zoomAndPan="magnify" viewBox="0 0 1440 809.999993" height="1080" preserveAspectRatio="xMidYMid meet" version="1.0"><defs><g/></defs><rect x="-144" width="1728" fill="#ffffff" y="-80.999999" height="971.999992" fill-opacity="1"/><rect x="-144" width="1728" fill="#021e45" y="-80.999999" height="971.999992" fill-opacity="1"/><g fill="#ffffff" fill-opacity="1"><g transform="translate(318.738275, 489.4842)"><g><path d="M 17.015625 0 L 17.015625 -175.109375 L 76.796875 -175.109375 C 97.304688 -175.109375 114.191406 -171.476562 127.453125 -164.21875 C 140.710938 -156.96875 150.550781 -146.796875 156.96875 -133.703125 C 163.394531 -120.617188 166.609375 -105.234375 166.609375 -87.546875 C 166.609375 -69.867188 163.394531 -54.484375 156.96875 -41.390625 C 150.550781 -28.304688 140.710938 -18.132812 127.453125 -10.875 C 114.191406 -3.625 97.304688 0 76.796875 0 Z M 49.03125 -27.515625 L 75.296875 -27.515625 C 89.972656 -27.515625 101.5625 -29.890625 110.0625 -34.640625 C 118.570312 -39.398438 124.660156 -46.238281 128.328125 -55.15625 C 131.992188 -64.082031 133.828125 -74.878906 133.828125 -87.546875 C 133.828125 -100.054688 131.992188 -110.8125 128.328125 -119.8125 C 124.660156 -128.820312 118.570312 -135.742188 110.0625 -140.578125 C 101.5625 -145.421875 89.972656 -147.84375 75.296875 -147.84375 L 49.03125 -147.84375 Z M 49.03125 -27.515625 "/></g></g></g><g fill="#ffffff" fill-opacity="1"><g transform="translate(496.598164, 489.4842)"><g><path d="M 33.515625 -143.34375 C 27.679688 -143.34375 22.890625 -145.09375 19.140625 -148.59375 C 15.390625 -152.09375 13.515625 -156.507812 13.515625 -161.84375 C 13.515625 -167.1875 15.390625 -171.566406 19.140625 -174.984375 C 22.890625 -178.398438 27.679688 -180.109375 33.515625 -180.109375 C 39.359375 -180.109375 44.15625 -178.398438 47.90625 -174.984375 C 51.65625 -171.566406 53.53125 -167.1875 53.53125 -161.84375 C 53.53125 -156.507812 51.65625 -152.09375 47.90625 -148.59375 C 44.15625 -145.09375 39.359375 -143.34375 33.515625 -143.34375 Z M 17.515625 0 L 17.515625 -124.078125 L 49.53125 -124.078125 L 49.53125 0 Z M 17.515625 0 "/></g></g></g><g fill="#ffffff" fill-opacity="1"><g transform="translate(563.389416, 489.4842)"><g><path d="M 4.5 0 L 49.53125 -62.03125 L 4.5 -124.078125 L 38.78125 -124.078125 L 70.296875 -80.046875 L 101.5625 -124.078125 L 136.078125 -124.078125 L 90.8125 -62.03125 L 136.078125 0 L 101.5625 0 L 70.296875 -44.03125 L 38.78125 0 Z M 4.5 0 "/></g></g></g><g fill="#ffffff" fill-opacity="1"><g transform="translate(703.726154, 489.4842)"><g><path d="M 17.015625 0 L 17.015625 -175.109375 L 49.03125 -175.109375 L 49.03125 0 Z M 17.015625 0 "/></g></g></g><g fill="#ffffff" fill-opacity="1"><g transform="translate(769.766937, 489.4842)"><g><path d="M 16.265625 0 L 16.265625 -124.078125 L 44.53125 -124.078125 L 47.03125 -103.0625 C 50.863281 -110.40625 56.40625 -116.242188 63.65625 -120.578125 C 70.914062 -124.910156 79.46875 -127.078125 89.3125 -127.078125 C 104.644531 -127.078125 116.566406 -122.238281 125.078125 -112.5625 C 133.585938 -102.894531 137.84375 -88.722656 137.84375 -70.046875 L 137.84375 0 L 105.8125 0 L 105.8125 -67.046875 C 105.8125 -77.710938 103.644531 -85.878906 99.3125 -91.546875 C 94.976562 -97.222656 88.222656 -100.0625 79.046875 -100.0625 C 70.046875 -100.0625 62.664062 -96.890625 56.90625 -90.546875 C 51.15625 -84.210938 48.28125 -75.378906 48.28125 -64.046875 L 48.28125 0 Z M 16.265625 0 "/></g></g></g><g fill="#ffffff" fill-opacity="1"><g transform="translate(921.860922, 489.4842)"><g><path d="M 16.265625 0 L 16.265625 -124.078125 L 44.53125 -124.078125 L 47.03125 -103.0625 C 50.863281 -110.40625 56.40625 -116.242188 63.65625 -120.578125 C 70.914062 -124.910156 79.46875 -127.078125 89.3125 -127.078125 C 104.644531 -127.078125 116.566406 -122.238281 125.078125 -112.5625 C 133.585938 -102.894531 137.84375 -88.722656 137.84375 -70.046875 L 137.84375 0 L 105.8125 0 L 105.8125 -67.046875 C 105.8125 -77.710938 103.644531 -85.878906 99.3125 -91.546875 C 94.976562 -97.222656 88.222656 -100.0625 79.046875 -100.0625 C 70.046875 -100.0625 62.664062 -96.890625 56.90625 -90.546875 C 51.15625 -84.210938 48.28125 -75.378906 48.28125 -64.046875 L 48.28125 0 Z M 16.265625 0 "/></g></g></g><g fill="#ee4b27" fill-opacity="1"><g transform="translate(1073.9648, 489.4842)"><g><path d="M 12.765625 -136.578125 L 9.75 -188.875 L 37.78125 -188.875 L 34.515625 -136.578125 Z M 12.765625 -136.578125 "/></g></g></g></svg>